# xmcd CD database file
#
# Track frame offsets:
#	150
#	18537
#	50744
#	72943
#	86298
#	108380
#	125384
#	148041
#	165141
#	190650
#	203550
#	225640
#
# Disc length: 3451 seconds
#
# Revision: 0
# Processed by: cddbd v1.5.1PL0 Copyright (c) Steve Scherf et al.
# Submitted via: CDex 1.51
#
DISCID=970d790c
DTITLE=Stony B and Grampa - On The Street
DYEAR=2005
DGENRE=Blues
TTITLE0=Down Home Blues
TTITLE1=Louise
TTITLE2=Dont' Make Your Move
TTITLE3=You Were the One
TTITLE4=A Friend
TTITLE5=Sweet Home Chicago
TTITLE6=Stony B Blues
TTITLE7=Drivin' Wheel
TTITLE8=I Got the Blues
TTITLE9=Bules Changes
TTITLE10=Night Time is the Right Time
TTITLE11=Blind Man
EXTD=YEAR: 2005
EXTT0=
EXTT1=
EXTT2=
EXTT3=
EXTT4=
EXTT5=
EXTT6=
EXTT7=
EXTT8=
EXTT9=
EXTT10=
EXTT11=
PLAYORDER=
